HIERARCHY
ROOT Hips
{
	OFFSET 55.142899 -37.039017 91.691093
	CHANNELS 6 Xposition Yposition Zposition Xrotation Yrotation Zrotation
	JOINT spine
	{
		OFFSET 0.000000 -0.393700 6.846367
		CHANNELS 3 Xrotation Yrotation Zrotation
		JOINT spine1
		{
			OFFSET 0.000000 -0.000004 9.496208
			CHANNELS 3 Xrotation Yrotation Zrotation
			JOINT spine2
			{
				OFFSET 0.000000 0.000000 9.099091
				CHANNELS 3 Xrotation Yrotation Zrotation
				JOINT Neck
				{
					OFFSET 0.000000 -1.113785 23.361214
					CHANNELS 3 Xrotation Yrotation Zrotation
					JOINT Head
					{
						OFFSET 0.000000 0.000000 7.058014
						CHANNELS 3 Xrotation Yrotation Zrotation
						End Site
						{
							OFFSET 0.000000 5.634186 17.084396
						}
					}
				}
				JOINT RightShoulder
				{
					OFFSET -3.831360 0.533489 9.826309
					CHANNELS 3 Xrotation Yrotation Zrotation
					JOINT RightArm
					{
						OFFSET 0.000000 -0.000004 12.888100
						CHANNELS 3 Xrotation Yrotation Zrotation
						JOINT RightArmRoll
						{
							OFFSET 0.000000 0.000000 6.506165
							CHANNELS 3 Xrotation Yrotation Zrotation
							JOINT RightForeArm
							{
								OFFSET 0.000000 -0.000004 18.950104
								CHANNELS 3 Xrotation Yrotation Zrotation
								JOINT RightForeArmRoll
								{
									OFFSET 0.000000 0.000000 7.300919
									CHANNELS 3 Xrotation Yrotation Zrotation
									JOINT RightHand
									{
										OFFSET 0.000000 -0.000004 14.651398
										CHANNELS 3 Xrotation Yrotation Zrotation
										End Site
										{
											OFFSET 0.000000 0.000000 0.100006
										}
									}
								}
							}
						}
					}
				}
				JOINT LeftShoulder
				{
					OFFSET 3.831360 0.533489 9.826309
					CHANNELS 3 Xrotation Yrotation Zrotation
					JOINT LeftArm
					{
						OFFSET 0.000000 -0.000004 12.888100
						CHANNELS 3 Xrotation Yrotation Zrotation
						JOINT LeftArmRoll
						{
							OFFSET 0.000000 0.000000 6.506165
							CHANNELS 3 Xrotation Yrotation Zrotation
							JOINT LeftForeArm
							{
								OFFSET 0.000000 -0.000004 18.950104
								CHANNELS 3 Xrotation Yrotation Zrotation
								JOINT LeftForeArmRoll
								{
									OFFSET 0.000000 0.000000 7.300934
									CHANNELS 3 Xrotation Yrotation Zrotation
									JOINT LeftHand
									{
										OFFSET 0.000000 -0.000004 14.651398
										CHANNELS 3 Xrotation Yrotation Zrotation
										End Site
										{
											OFFSET 0.000000 0.000000 0.100006
										}
									}
								}
							}
						}
					}
				}
			}
		}
	}
	JOINT RightUpLeg
	{
		OFFSET -6.068371 0.933475 -1.112778
		CHANNELS 3 Xrotation Yrotation Zrotation
		JOINT RightUpLegRoll
		{
			OFFSET 0.000000 -0.000004 17.179596
			CHANNELS 3 Xrotation Yrotation Zrotation
			JOINT RightLeg
			{
				OFFSET 0.000000 0.000004 -21.274300
				CHANNELS 3 Xrotation Yrotation Zrotation
				JOINT RightLegRoll
				{
					OFFSET 0.000000 -0.000004 21.343903
					CHANNELS 3 Xrotation Yrotation Zrotation
					JOINT RightFoot
					{
						OFFSET 0.000000 0.000000 17.765198
						CHANNELS 3 Xrotation Yrotation Zrotation
						JOINT RightToeBase
						{
							OFFSET 0.000000 -0.000004 14.850800
							CHANNELS 3 Xrotation Yrotation Zrotation
							End Site
							{
								OFFSET 0.006294 0.829006 7.192123
							}
						}
					}
				}
			}
		}
	}
	JOINT LeftUpLeg
	{
		OFFSET 6.068371 0.933475 -1.112778
		CHANNELS 3 Xrotation Yrotation Zrotation
		JOINT LeftUpLegRoll
		{
			OFFSET 0.000000 -0.000004 17.179703
			CHANNELS 3 Xrotation Yrotation Zrotation
			JOINT LeftLeg
			{
				OFFSET 0.000000 -0.000004 21.274208
				CHANNELS 3 Xrotation Yrotation Zrotation
				JOINT LeftLegRoll
				{
					OFFSET 0.000000 0.000000 21.541199
					CHANNELS 3 Xrotation Yrotation Zrotation
					JOINT LeftFoot
					{
						OFFSET 0.000000 -0.000004 17.567902
						CHANNELS 3 Xrotation Yrotation Zrotation
						JOINT LeftToeBase
						{
							OFFSET 0.000000 -0.000004 14.850800
							CHANNELS 3 Xrotation Yrotation Zrotation
							End Site
							{
								OFFSET -0.028210 0.829002 7.192139
							}
						}
					}
				}
			}
		}
	}
}
MOTION
Frames: 7
Frame Time: 0.041667
54.283199 5.297596 58.638092 0.598773 1.841799 -2.900674 -1.063270 -0.244242 0.213294 1.877188 -0.490160 0.425068 3.522276 -0.485034 0.430911 15.942874 -2.539486 0.846465 -5.560185 3.115382 0.849688 15.541687 -74.719763 14.915864 108.863824 -64.044785 95.379357 -0.000001 -0.000001 0.000000 40.909514 -15.901939 5.282271 -0.000008 0.000003 -3.000002 -4.999606 -7.998827 -0.000059 -8.153160 60.464707 9.701325 -50.768974 129.127527 49.960023 -0.000003 0.000012 0.000005 24.576180 18.788327 -3.216495 -0.000009 -0.000002 2.999992 -5.000364 7.999118 -0.000237 -81.876667 -176.669755 3.074237 179.999991 -0.000004 -1.232995 106.042491 -0.583063 -3.272827 -0.000001 -0.000001 1.707190 66.485799 7.265356 1.374379 25.456959 -7.355622 0.000005 -84.474311 163.078635 -2.431171 -0.000020 -0.000005 -0.864863 -79.932939 -0.848662 3.215450 -0.000004 0.000002 -1.898358 67.594701 -7.196532 -1.456402 25.456955 7.355612 0.000000 
54.283100 5.299854 58.638683 0.600175 1.839319 -2.900054 -1.062328 -0.244222 0.213130 1.879069 -0.489966 0.425457 3.524156 -0.484836 0.431295 16.000862 -2.533953 0.849479 -5.620592 3.118355 0.852538 15.605145 -74.709080 14.985749 108.848087 -64.057674 95.355895 -0.000003 -0.000002 0.000001 40.926388 -15.899285 5.284426 -0.000008 0.000005 -3.000001 -4.999608 -7.998829 -0.000062 -8.106310 60.464960 9.646384 -50.771730 129.108716 49.962175 -0.000005 0.000012 0.000005 24.594026 18.789091 -3.218990 -0.000009 -0.000003 2.999990 -5.000363 7.999121 -0.000238 -81.878826 -176.668157 3.073988 179.999991 -0.000004 -1.232994 106.041105 -0.582738 -3.271884 -0.000002 -0.000000 1.707210 66.485280 7.265335 1.375109 25.456959 -7.355624 0.000006 -84.474038 163.079769 -2.431252 -0.000020 -0.000005 -0.864901 -79.933793 -0.849300 3.214900 -0.000004 0.000002 -1.898359 67.594168 -7.196525 -1.456436 25.456959 7.355616 -0.000000 
54.238499 5.287010 58.658894 0.601313 1.836799 -2.899365 -1.061400 -0.244174 0.212950 1.880949 -0.489704 0.425858 3.526036 -0.484568 0.431694 16.059967 -2.529291 0.852509 -5.681841 3.122255 0.855430 15.669965 -74.698985 15.056983 108.830875 -64.070692 95.331218 -0.000003 -0.000002 0.000003 40.942814 -15.896570 5.286486 -0.000006 0.000006 -2.999997 -4.999605 -7.998830 -0.000061 -8.059137 60.464721 9.591022 -50.773191 129.090329 49.962414 -0.000005 0.000012 0.000005 24.611811 18.789488 -3.221331 -0.000009 -0.000004 2.999990 -5.000365 7.999121 -0.000237 -81.880622 -176.666422 3.073158 179.999991 -0.000005 -1.232995 106.039711 -0.582413 -3.271936 -0.000001 -0.000001 1.707240 66.484754 7.265357 1.375748 25.456960 -7.355625 0.000005 -84.473396 163.080820 -2.431198 -0.000020 -0.000005 -0.864957 -79.934551 -0.849958 3.214343 -0.000004 0.000002 -1.898349 67.593546 -7.196543 -1.456382 25.456962 7.355614 -0.000001 
54.247200 5.290546 58.653183 0.602286 1.834249 -2.898639 -1.060461 -0.244104 0.212759 1.882819 -0.489391 0.426271 3.527906 -0.484251 0.432103 16.119579 -2.525266 0.855545 -5.743690 3.126814 0.858359 15.735644 -74.689211 15.129060 108.812877 -64.083833 95.306165 -0.000003 -0.000001 0.000001 40.959121 -15.893799 5.288559 -0.000008 0.000004 -3.000001 -4.999605 -7.998830 -0.000060 -8.011699 60.463970 9.535333 -50.774544 129.071874 49.962304 -0.000004 0.000012 0.000005 24.629568 18.789702 -3.223595 -0.000013 -0.000004 2.999989 -5.000364 7.999117 -0.000236 -81.882166 -176.664742 3.073032 179.999991 -0.000004 -1.232994 106.038420 -0.582091 -3.270991 -0.000001 -0.000000 1.707271 66.484337 7.265347 1.376376 25.456953 -7.355621 0.000005 -84.472747 163.081886 -2.430239 -0.000019 -0.000004 -0.865027 -79.935309 -0.850640 3.213756 -0.000005 0.000002 -1.898349 67.592993 -7.196500 -1.456507 25.456957 7.355614 -0.000001 
54.241699 5.290779 58.657490 0.603157 1.831689 -2.897890 -1.059529 -0.244023 0.212561 1.884689 -0.489052 0.426689 3.529766 -0.483906 0.432517 16.179699 -2.521590 0.858589 -5.805868 3.131735 0.861312 15.801767 -74.679594 15.201585 108.794265 -64.097070 95.280538 -0.000001 -0.000002 -0.000000 40.975333 -15.891046 5.290662 -0.000006 0.000004 -3.000000 -4.999605 -7.998829 -0.000061 -7.964157 60.463109 9.479503 -50.774834 129.053979 49.960723 -0.000004 0.000012 0.000005 24.647299 18.789727 -3.225781 -0.000010 -0.000002 2.999990 -5.000362 7.999118 -0.000237 -81.883627 -176.663034 3.072622 179.999991 -0.000004 -1.232994 106.037020 -0.582043 -3.272003 -0.000002 -0.000000 1.707301 66.483907 7.265341 1.377002 25.456957 -7.355625 0.000005 -84.471804 163.083020 -2.429827 -0.000020 -0.000004 -0.865104 -79.936067 -0.851323 3.213173 -0.000005 0.000002 -1.898339 67.592372 -7.196523 -1.456553 25.456959 7.355615 -0.000002 
54.229301 5.289955 58.653397 0.604002 1.829128 -2.897140 -1.058597 -0.243938 0.212362 1.886559 -0.488706 0.427111 3.531636 -0.483554 0.432933 16.239914 -2.517988 0.861625 -5.868144 3.136750 0.864282 15.868092 -74.670148 15.274306 108.775359 -64.110239 95.254713 -0.000002 -0.000001 0.000002 40.991432 -15.888330 5.292749 -0.000006 0.000002 -3.000000 -4.999608 -7.998831 -0.000061 -7.916549 60.462037 9.423598 -50.776080 129.035456 49.960320 -0.000005 0.000012 0.000005 24.665128 18.789741 -3.228011 -0.000013 -0.000002 2.999989 -5.000364 7.999119 -0.000236 -81.884993 -176.661286 3.072203 179.999991 -0.000005 -1.232994 106.035736 -0.581719 -3.272069 -0.000001 -0.000001 1.707340 66.483388 7.265361 1.377640 25.456957 -7.355624 0.000005 -84.470514 163.084167 -2.430262 -0.000020 -0.000003 -0.865183 -79.936825 -0.852012 3.212576 -0.000004 0.000002 -1.898330 67.591846 -7.196515 -1.456486 25.456957 7.355615 -0.000002 
54.264999 5.292614 58.632191 0.604894 1.826578 -2.896391 -1.057661 -0.243861 0.212165 1.888428 -0.488374 0.427527 3.533506 -0.483216 0.433346 16.299929 -2.514214 0.864652 -5.930246 3.141571 0.867255 15.933856 -74.660408 15.346463 108.756890 -64.123442 95.229264 -0.000002 -0.000002 0.000001 41.007633 -15.885569 5.294822 -0.000007 0.000003 -3.000001 -4.999609 -7.998832 -0.000061 -7.869034 60.461156 9.367810 -50.776378 129.017561 49.958780 -0.000002 0.000012 0.000005 24.682876 18.789856 -3.230233 -0.000008 -0.000002 2.999991 -5.000365 7.999118 -0.000237 -81.886510 -176.659428 3.070990 179.999991 -0.000004 -1.232995 106.034336 -0.581390 -3.271112 -0.000001 -0.000001 1.707371 66.482971 7.265350 1.378267 25.456959 -7.355625 0.000006 -84.469571 163.085315 -2.429942 -0.000020 -0.000004 -0.865258 -79.937597 -0.852693 3.211990 -0.000005 0.000002 -1.898330 67.591224 -7.196539 -1.456530 25.456957 7.355614 -0.000003 
